# MagicaVoxel @ Ephtracy

# group
o 

# material
mtllib ground.mtl
usemtl palette

# normals
vn -1 0 0
vn 1 0 0
vn 0 0 1
vn 0 0 -1
vn 0 -1 0
vn 0 1 0

# texcoords
vt 0.369141 0.5
vt 0.537109 0.5
vt 0.560547 0.5
vt 0.654297 0.5
vt 0.748047 0.5

# verts
v -0.5 0 0.5
v -0.5 0 -0.5
v -0.5 0.4 0.5
v -0.5 0.4 -0.5
v -0.5 0.8 0.5
v -0.5 0.8 -0.5
v -0.5 0.9 0.5
v -0.5 0.9 -0.5
v 0.5 0 0.5
v 0.5 0 -0.5
v 0.5 0.2 0.5
v 0.5 0.2 0.4
v 0.5 0.2 0
v 0.5 0.2 -0.3
v 0.5 0.3 0.5
v 0.5 0.3 0.4
v 0.5 0.3 0
v 0.5 0.3 -0.3
v 0.5 0.4 0.5
v 0.5 0.4 -0.5
v 0.5 0.8 0.5
v 0.5 0.8 -0.5
v 0.5 0.9 0.5
v 0.5 0.9 -0.5
v -0.5 0 0.5
v -0.5 0.4 0.5
v -0.5 0.8 0.5
v -0.5 0.9 0.5
v -0.3 0.2 0.5
v -0.3 0.3 0.5
v -0.1 0.2 0.5
v -0.1 0.3 0.5
v 0.2 0.2 0.5
v 0.2 0.3 0.5
v 0.5 0 0.5
v 0.5 0.2 0.5
v 0.5 0.3 0.5
v 0.5 0.4 0.5
v 0.5 0.8 0.5
v 0.5 0.9 0.5
v -0.5 0 -0.5
v -0.5 0.4 -0.5
v -0.5 0.8 -0.5
v -0.5 0.9 -0.5
v -0.4 0.1 -0.5
v -0.4 0.2 -0.5
v -0.3 0.1 -0.5
v -0.3 0.2 -0.5
v -0.2 0.2 -0.5
v -0.2 0.3 -0.5
v 0.1 0.2 -0.5
v 0.1 0.3 -0.5
v 0.5 0 -0.5
v 0.5 0.4 -0.5
v 0.5 0.8 -0.5
v 0.5 0.9 -0.5
v -0.5 0 0.5
v 0.5 0 0.5
v -0.5 0 -0.5
v 0.5 0 -0.5
v -0.5 0.9 0.5
v 0.5 0.9 0.5
v -0.5 0.9 -0.5
v 0.5 0.9 -0.5

# faces
f 3/2/1 2/2/1 1/2/1
f 4/2/1 2/2/1 3/2/1
f 5/5/1 4/5/1 3/5/1
f 6/5/1 4/5/1 5/5/1
f 7/4/1 6/4/1 5/4/1
f 8/4/1 6/4/1 7/4/1
f 9/2/2 10/2/2 11/2/2
f 11/2/2 10/2/2 12/2/2
f 12/2/2 10/2/2 13/2/2
f 13/2/2 10/2/2 14/2/2
f 11/3/2 12/3/2 15/3/2
f 12/2/2 13/2/2 16/2/2
f 15/3/2 12/3/2 16/3/2
f 13/3/2 14/3/2 17/3/2
f 16/2/2 13/2/2 17/2/2
f 14/2/2 10/2/2 18/2/2
f 17/3/2 14/3/2 18/3/2
f 16/2/2 17/2/2 19/2/2
f 15/2/2 16/2/2 19/2/2
f 17/2/2 18/2/2 19/2/2
f 18/2/2 10/2/2 20/2/2
f 19/2/2 18/2/2 20/2/2
f 19/5/2 20/5/2 21/5/2
f 21/5/2 20/5/2 22/5/2
f 21/4/2 22/4/2 23/4/2
f 23/4/2 22/4/2 24/4/2
f 29/2/3 26/2/3 25/2/3
f 30/2/3 26/2/3 29/2/3
f 31/2/3 29/2/3 25/2/3
f 31/3/3 30/3/3 29/3/3
f 32/2/3 26/2/3 30/2/3
f 32/3/3 30/3/3 31/3/3
f 33/2/3 31/2/3 25/2/3
f 33/2/3 32/2/3 31/2/3
f 34/2/3 26/2/3 32/2/3
f 34/2/3 32/2/3 33/2/3
f 35/2/3 33/2/3 25/2/3
f 36/3/3 34/3/3 33/3/3
f 36/2/3 33/2/3 35/2/3
f 37/2/3 26/2/3 34/2/3
f 37/3/3 34/3/3 36/3/3
f 38/5/3 27/5/3 26/5/3
f 38/2/3 26/2/3 37/2/3
f 39/4/3 28/4/3 27/4/3
f 39/5/3 27/5/3 38/5/3
f 40/4/3 28/4/3 39/4/3
f 41/2/4 42/2/4 45/2/4
f 45/2/4 42/2/4 46/2/4
f 41/2/4 45/2/4 47/2/4
f 45/1/4 46/1/4 47/1/4
f 46/2/4 42/2/4 48/2/4
f 47/1/4 46/1/4 48/1/4
f 47/2/4 48/2/4 49/2/4
f 48/2/4 42/2/4 49/2/4
f 49/2/4 42/2/4 50/2/4
f 47/2/4 49/2/4 51/2/4
f 49/3/4 50/3/4 51/3/4
f 50/2/4 42/2/4 52/2/4
f 51/3/4 50/3/4 52/3/4
f 41/2/4 47/2/4 53/2/4
f 47/2/4 51/2/4 53/2/4
f 51/2/4 52/2/4 53/2/4
f 42/5/4 43/5/4 54/5/4
f 53/2/4 52/2/4 54/2/4
f 52/2/4 42/2/4 54/2/4
f 43/4/4 44/4/4 55/4/4
f 54/5/4 43/5/4 55/5/4
f 55/4/4 44/4/4 56/4/4
f 59/2/5 58/2/5 57/2/5
f 60/2/5 58/2/5 59/2/5
f 61/4/6 62/4/6 63/4/6
f 63/4/6 62/4/6 64/4/6
