# MagicaVoxel @ Ephtracy

# group
o 

# material
mtllib sometg.mtl
usemtl palette

# normals
vn -1 0 0
vn 1 0 0
vn 0 0 1
vn 0 0 -1
vn 0 -1 0
vn 0 1 0

# texcoords
vt 0.0136719 0.5
vt 0.0214844 0.5
vt 0.0332031 0.5
vt 0.0605469 0.5
vt 0.0683594 0.5
vt 0.0917969 0.5
vt 0.111328 0.5
vt 0.115234 0.5
vt 0.279297 0.5
vt 0.369141 0.5
vt 0.486328 0.5
vt 0.603516 0.5
vt 0.607422 0.5
vt 0.623047 0.5
vt 0.767578 0.5
vt 0.841797 0.5
vt 0.994141 0.5

# verts
v -0.7 0.8 0.1
v -0.7 0.8 -0.2
v -0.7 0.9 0
v -0.7 0.9 -0.1
v -0.7 1.1 0.1
v -0.7 1.1 0
v -0.7 1.1 -0.1
v -0.7 1.1 -0.2
v -0.7 1.2 0.1
v -0.7 1.2 0
v -0.7 1.2 -0.1
v -0.7 1.2 -0.2
v -0.7 1.3 0
v -0.7 1.3 -0.1
v -0.6 0 0
v -0.6 0 -0.1
v -0.6 0.8 0
v -0.6 0.8 -0.1
v -0.6 1.1 0
v -0.6 1.1 -0.1
v -0.6 1.2 0.1
v -0.6 1.2 0
v -0.6 1.2 -0.1
v -0.6 1.2 -0.2
v -0.6 1.3 0.1
v -0.6 1.3 0
v -0.6 1.3 -0.1
v -0.6 1.3 -0.2
v -0.6 1.4 0
v -0.6 1.4 -0.1
v -0.5 1.1 0.1
v -0.5 1.1 0
v -0.5 1.1 -0.1
v -0.5 1.1 -0.2
v -0.5 1.2 0.1
v -0.5 1.2 0
v -0.5 1.2 -0.1
v -0.5 1.2 -0.2
v -0.4 0.4 0
v -0.4 0.4 -0.1
v -0.4 0.5 0
v -0.4 0.5 -0.1
v -0.3 0.3 0.2
v -0.3 0.3 0.1
v -0.3 0.3 0
v -0.3 0.3 -0.1
v -0.3 0.3 -0.2
v -0.3 0.3 -0.3
v -0.3 0.4 0.2
v -0.3 0.4 0.1
v -0.3 0.4 0
v -0.3 0.4 -0.1
v -0.3 0.4 -0.2
v -0.3 0.4 -0.3
v -0.3 0.5 0
v -0.3 0.5 -0.1
v -0.3 0.5 -0.2
v -0.3 0.5 -0.3
v -0.3 0.6 0
v -0.3 0.6 -0.1
v -0.3 0.7 0.1
v -0.3 0.7 0
v -0.3 0.8 0
v -0.3 0.8 -0.2
v -0.3 0.9 -0.1
v -0.3 0.9 -0.2
v -0.3 0.9 -0.3
v -0.3 1 -0.1
v -0.3 1 -0.2
v -0.3 1.1 0.1
v -0.3 1.1 0
v -0.3 1.1 -0.1
v -0.3 1.2 0
v -0.3 1.2 -0.3
v -0.2 0 0
v -0.2 0 -0.1
v -0.2 0.2 0
v -0.2 0.2 -0.1
v -0.2 0.3 0
v -0.2 0.3 -0.1
v -0.2 0.4 0.1
v -0.2 0.4 0
v -0.2 0.4 -0.1
v -0.2 0.4 -0.2
v -0.2 0.5 0
v -0.2 0.5 -0.1
v -0.2 0.5 -0.2
v -0.2 0.5 -0.3
v -0.2 0.6 0.1
v -0.2 0.6 0
v -0.2 0.6 -0.1
v -0.2 0.6 -0.2
v -0.2 0.7 0.1
v -0.2 0.7 0
v -0.2 0.7 -0.1
v -0.2 0.8 0
v -0.2 0.8 -0.2
v -0.2 0.8 -0.3
v -0.2 0.8 -0.4
v -0.2 0.9 -0.2
v -0.2 0.9 -0.3
v -0.2 0.9 -0.4
v -0.2 1 -0.3
v -0.2 1 -0.4
v -0.2 1.1 0.1
v -0.2 1.1 0
v -0.2 1.1 -0.3
v -0.2 1.1 -0.4
v -0.2 1.2 0.1
v -0.2 1.2 0
v -0.2 1.2 -0.1
v -0.2 1.2 -0.2
v -0.2 1.3 -0.1
v -0.2 1.3 -0.2
v -0.1 0.9 -0.3
v -0.1 0.9 -0.4
v -0.1 1 -0.3
v -0.1 1 -0.4
v -0.1 1.1 -0.3
v -0.1 1.1 -0.4
v -0.1 1.2 -0.3
v -0.1 1.2 -0.4
v 0 0.7 -0.1
v 0 0.7 -0.2
v 0 0.8 -0.1
v 0 0.8 -0.2
v 0.1 0 0
v 0.1 0 -0.1
v 0.1 0.2 0
v 0.1 0.2 -0.1
v 0.1 0.3 0
v 0.1 0.3 -0.1
v 0.2 0.8 0
v 0.2 0.8 -0.1
v 0.2 0.9 0
v 0.2 0.9 -0.1
v -0.6 1.1 0.1
v -0.6 1.1 0
v -0.6 1.1 -0.1
v -0.6 1.1 -0.2
v -0.6 1.2 0.1
v -0.6 1.2 0
v -0.6 1.2 -0.1
v -0.6 1.2 -0.2
v -0.5 0 0
v -0.5 0 -0.1
v -0.5 0.3 0
v -0.5 0.3 -0.1
v -0.5 0.4 0
v -0.5 0.4 -0.1
v -0.5 0.8 0
v -0.5 0.8 -0.1
v -0.5 1.1 0
v -0.5 1.1 -0.1
v -0.5 1.2 0.1
v -0.5 1.2 0
v -0.5 1.2 -0.1
v -0.5 1.2 -0.2
v -0.5 1.3 0.1
v -0.5 1.3 0
v -0.5 1.3 -0.1
v -0.5 1.3 -0.2
v -0.5 1.4 0
v -0.5 1.4 -0.1
v -0.4 0.3 0
v -0.4 0.3 -0.1
v -0.4 0.4 0
v -0.4 0.4 -0.1
v -0.4 0.8 0.1
v -0.4 0.8 -0.2
v -0.4 0.9 0
v -0.4 0.9 -0.1
v -0.4 1.1 0.1
v -0.4 1.1 0
v -0.4 1.1 -0.1
v -0.4 1.1 -0.2
v -0.4 1.2 0.1
v -0.4 1.2 0
v -0.4 1.2 -0.1
v -0.4 1.2 -0.2
v -0.4 1.3 0
v -0.4 1.3 -0.1
v -0.3 0.4 0
v -0.3 0.4 -0.1
v -0.3 0.5 0
v -0.3 0.5 -0.1
v -0.1 0 0
v -0.1 0 -0.1
v -0.1 0.2 0
v -0.1 0.2 -0.1
v -0.1 0.3 0
v -0.1 0.3 -0.1
v -0.1 0.7 -0.1
v -0.1 0.7 -0.2
v -0.1 0.8 -0.1
v -0.1 0.8 -0.2
v 0 0.8 0
v 0 0.8 -0.1
v 0 0.9 0
v 0 0.9 -0.1
v 0.1 0.4 -0.2
v 0.1 0.4 -0.3
v 0.1 0.5 -0.2
v 0.1 0.5 -0.3
v 0.1 0.8 -0.3
v 0.1 0.8 -0.4
v 0.1 0.9 -0.3
v 0.1 0.9 -0.4
v 0.1 1.1 -0.3
v 0.1 1.1 -0.4
v 0.1 1.2 -0.3
v 0.1 1.2 -0.4
v 0.2 0 0
v 0.2 0 -0.1
v 0.2 0.2 0
v 0.2 0.2 -0.1
v 0.2 0.3 0
v 0.2 0.3 -0.1
v 0.2 0.3 -0.2
v 0.2 0.3 -0.3
v 0.2 0.4 0.1
v 0.2 0.4 0
v 0.2 0.4 -0.1
v 0.2 0.4 -0.2
v 0.2 0.4 -0.3
v 0.2 0.5 0.1
v 0.2 0.5 0
v 0.2 0.5 -0.1
v 0.2 0.5 -0.2
v 0.2 0.5 -0.3
v 0.2 0.6 0.1
v 0.2 0.6 0
v 0.2 0.6 -0.1
v 0.2 0.6 -0.2
v 0.2 0.6 -0.3
v 0.2 0.7 0.1
v 0.2 0.7 -0.1
v 0.2 0.8 -0.1
v 0.2 0.8 -0.2
v 0.2 0.8 -0.3
v 0.2 0.9 -0.2
v 0.2 0.9 -0.3
v 0.2 1 -0.2
v 0.2 1.1 0.1
v 0.2 1.1 0
v 0.2 1.1 -0.2
v 0.2 1.1 -0.3
v 0.2 1.2 0.1
v 0.2 1.2 0
v 0.2 1.2 -0.1
v 0.2 1.2 -0.2
v 0.2 1.2 -0.3
v 0.2 1.3 -0.1
v 0.2 1.3 -0.2
v 0.3 0.3 0.2
v 0.3 0.3 0.1
v 0.3 0.3 0
v 0.3 0.3 -0.1
v 0.3 0.3 -0.2
v 0.3 0.4 0.2
v 0.3 0.4 0.1
v 0.3 0.4 0
v 0.3 0.4 -0.1
v 0.3 0.4 -0.2
v 0.3 0.5 0
v 0.3 0.5 -0.1
v 0.3 0.7 0.1
v 0.3 0.7 -0.1
v 0.3 0.8 0.1
v 0.3 0.8 0
v 0.3 0.8 -0.1
v 0.3 0.8 -0.2
v 0.3 0.9 0.1
v 0.3 0.9 0
v 0.3 1 0.1
v 0.3 1 0
v 0.3 1 -0.1
v 0.3 1 -0.2
v 0.3 1.1 0.1
v 0.3 1.1 0
v 0.3 1.1 -0.1
v 0.3 1.1 -0.2
v 0.3 1.2 0
v 0.3 1.2 -0.2
v 0.4 0.3 0
v 0.4 0.3 -0.1
v 0.4 0.4 0
v 0.4 0.4 -0.1
v -0.3 0.3 0.2
v -0.3 0.4 0.2
v -0.2 0.3 0.2
v -0.2 0.4 0.2
v -0.1 0.3 0.2
v -0.1 0.4 0.2
v 0 0.3 0.2
v 0 0.4 0.2
v 0.1 0.3 0.2
v 0.1 0.4 0.2
v 0.2 0.3 0.2
v 0.2 0.4 0.2
v 0.3 0.3 0.2
v 0.3 0.4 0.2
v -0.7 0.8 0.1
v -0.7 1.1 0.1
v -0.7 1.2 0.1
v -0.6 0.9 0.1
v -0.6 1.1 0.1
v -0.6 1.2 0.1
v -0.6 1.3 0.1
v -0.5 0.9 0.1
v -0.5 1.1 0.1
v -0.5 1.2 0.1
v -0.5 1.3 0.1
v -0.4 0.8 0.1
v -0.4 1.1 0.1
v -0.4 1.2 0.1
v -0.3 0.7 0.1
v -0.3 1.1 0.1
v -0.2 0.4 0.1
v -0.2 0.6 0.1
v -0.2 0.7 0.1
v -0.2 0.8 0.1
v -0.2 0.9 0.1
v -0.2 1 0.1
v -0.2 1.1 0.1
v -0.2 1.2 0.1
v -0.1 0.4 0.1
v -0.1 0.6 0.1
v -0.1 0.7 0.1
v -0.1 0.8 0.1
v -0.1 0.9 0.1
v -0.1 1 0.1
v -0.1 1.2 0.1
v 0 0.4 0.1
v 0 0.6 0.1
v 0 0.7 0.1
v 0 0.8 0.1
v 0 0.9 0.1
v 0 1 0.1
v 0 1.1 0.1
v 0.1 0.4 0.1
v 0.1 0.5 0.1
v 0.1 0.6 0.1
v 0.1 0.7 0.1
v 0.1 0.8 0.1
v 0.1 0.9 0.1
v 0.1 1 0.1
v 0.1 1.1 0.1
v 0.1 1.2 0.1
v 0.2 0.4 0.1
v 0.2 0.5 0.1
v 0.2 0.6 0.1
v 0.2 0.7 0.1
v 0.2 0.8 0.1
v 0.2 0.9 0.1
v 0.2 1 0.1
v 0.2 1.1 0.1
v 0.2 1.2 0.1
v 0.3 0.7 0.1
v 0.3 0.8 0.1
v 0.3 0.9 0.1
v 0.3 1 0.1
v 0.3 1.1 0.1
v -0.7 1.2 0
v -0.7 1.3 0
v -0.6 0 0
v -0.6 0.8 0
v -0.6 1.1 0
v -0.6 1.2 0
v -0.6 1.3 0
v -0.6 1.4 0
v -0.5 0 0
v -0.5 0.3 0
v -0.5 0.4 0
v -0.5 0.8 0
v -0.5 1.1 0
v -0.5 1.2 0
v -0.5 1.3 0
v -0.5 1.4 0
v -0.4 0.3 0
v -0.4 0.4 0
v -0.4 0.5 0
v -0.4 1.2 0
v -0.4 1.3 0
v -0.3 0.4 0
v -0.3 0.5 0
v -0.3 0.6 0
v -0.3 1.1 0
v -0.3 1.2 0
v -0.2 0 0
v -0.2 0.2 0
v -0.2 0.3 0
v -0.2 0.5 0
v -0.2 0.6 0
v -0.2 1.1 0
v -0.2 1.2 0
v -0.1 0 0
v -0.1 0.2 0
v -0.1 0.3 0
v 0.1 0 0
v 0.1 0.2 0
v 0.1 0.3 0
v 0.2 0 0
v 0.2 0.2 0
v 0.2 0.3 0
v 0.2 0.4 0
v 0.2 0.5 0
v 0.2 1.1 0
v 0.2 1.2 0
v 0.3 0.3 0
v 0.3 0.4 0
v 0.3 0.5 0
v 0.3 1.1 0
v 0.3 1.2 0
v 0.4 0.3 0
v 0.4 0.4 0
v -0.7 1.1 -0.1
v -0.7 1.2 -0.1
v -0.6 1.1 -0.1
v -0.6 1.2 -0.1
v -0.5 1.1 -0.1
v -0.5 1.2 -0.1
v -0.4 1.1 -0.1
v -0.4 1.2 -0.1
v -0.2 1.2 -0.1
v -0.2 1.3 -0.1
v 0 0.8 -0.1
v 0 0.9 -0.1
v 0.1 0.8 -0.1
v 0.2 0.8 -0.1
v 0.2 0.9 -0.1
v 0.2 1.2 -0.1
v 0.2 1.3 -0.1
v -0.3 0.4 -0.2
v -0.3 0.5 -0.2
v -0.2 0.4 -0.2
v -0.2 0.5 -0.2
v -0.1 0.7 -0.2
v -0.1 0.8 -0.2
v 0 0.7 -0.2
v 0 0.8 -0.2
v -0.7 1.1 0
v -0.7 1.2 0
v -0.6 1.1 0
v -0.6 1.2 0
v -0.5 1.1 0
v -0.5 1.2 0
v -0.4 1.1 0
v -0.4 1.2 0
v -0.3 0.7 0
v -0.3 0.8 0
v -0.2 0.7 0
v -0.2 0.8 0
v 0 0.8 0
v 0 0.9 0
v 0.1 0.8 0
v 0.1 0.9 0
v 0.2 0.8 0
v 0.2 0.9 0
v -0.7 1.2 -0.1
v -0.7 1.3 -0.1
v -0.6 0 -0.1
v -0.6 0.8 -0.1
v -0.6 1.1 -0.1
v -0.6 1.2 -0.1
v -0.6 1.3 -0.1
v -0.6 1.4 -0.1
v -0.5 0 -0.1
v -0.5 0.3 -0.1
v -0.5 0.4 -0.1
v -0.5 0.8 -0.1
v -0.5 1.1 -0.1
v -0.5 1.2 -0.1
v -0.5 1.3 -0.1
v -0.5 1.4 -0.1
v -0.4 0.3 -0.1
v -0.4 0.4 -0.1
v -0.4 0.5 -0.1
v -0.4 1.2 -0.1
v -0.4 1.3 -0.1
v -0.3 0.4 -0.1
v -0.3 0.5 -0.1
v -0.3 0.6 -0.1
v -0.2 0 -0.1
v -0.2 0.2 -0.1
v -0.2 0.3 -0.1
v -0.2 0.5 -0.1
v -0.2 0.6 -0.1
v -0.1 0 -0.1
v -0.1 0.2 -0.1
v -0.1 0.3 -0.1
v -0.1 0.7 -0.1
v -0.1 0.8 -0.1
v 0 0.7 -0.1
v 0 0.8 -0.1
v 0.1 0 -0.1
v 0.1 0.2 -0.1
v 0.1 0.3 -0.1
v 0.2 0 -0.1
v 0.2 0.2 -0.1
v 0.2 0.3 -0.1
v 0.2 0.4 -0.1
v 0.2 0.5 -0.1
v 0.2 0.7 -0.1
v 0.2 0.8 -0.1
v 0.3 0.3 -0.1
v 0.3 0.4 -0.1
v 0.3 0.5 -0.1
v 0.3 0.7 -0.1
v 0.3 0.8 -0.1
v 0.4 0.3 -0.1
v 0.4 0.4 -0.1
v -0.7 0.8 -0.2
v -0.7 1.1 -0.2
v -0.7 1.2 -0.2
v -0.6 0.9 -0.2
v -0.6 1.1 -0.2
v -0.6 1.2 -0.2
v -0.6 1.3 -0.2
v -0.5 0.9 -0.2
v -0.5 1.1 -0.2
v -0.5 1.2 -0.2
v -0.5 1.3 -0.2
v -0.4 0.8 -0.2
v -0.4 1.1 -0.2
v -0.4 1.2 -0.2
v -0.3 0.8 -0.2
v -0.3 0.9 -0.2
v -0.2 0.8 -0.2
v -0.2 0.9 -0.2
v -0.2 1.2 -0.2
v -0.2 1.3 -0.2
v -0.1 1.2 -0.2
v 0.1 0.4 -0.2
v 0.1 0.5 -0.2
v 0.1 1.2 -0.2
v 0.2 0.3 -0.2
v 0.2 0.4 -0.2
v 0.2 0.5 -0.2
v 0.2 0.8 -0.2
v 0.2 0.9 -0.2
v 0.2 1 -0.2
v 0.2 1.1 -0.2
v 0.2 1.2 -0.2
v 0.2 1.3 -0.2
v 0.3 0.3 -0.2
v 0.3 0.4 -0.2
v 0.3 0.8 -0.2
v 0.3 1 -0.2
v 0.3 1.1 -0.2
v 0.3 1.2 -0.2
v -0.3 0.3 -0.3
v -0.3 0.4 -0.3
v -0.3 0.5 -0.3
v -0.3 0.9 -0.3
v -0.3 1.2 -0.3
v -0.2 0.3 -0.3
v -0.2 0.4 -0.3
v -0.2 0.5 -0.3
v -0.2 0.8 -0.3
v -0.2 0.9 -0.3
v -0.2 1 -0.3
v -0.2 1.1 -0.3
v -0.2 1.2 -0.3
v -0.1 0.3 -0.3
v -0.1 0.4 -0.3
v -0.1 0.9 -0.3
v -0.1 1 -0.3
v -0.1 1.1 -0.3
v -0.1 1.2 -0.3
v 0 0.3 -0.3
v 0 0.4 -0.3
v 0.1 0.3 -0.3
v 0.1 0.4 -0.3
v 0.1 0.5 -0.3
v 0.1 0.6 -0.3
v 0.1 0.8 -0.3
v 0.1 0.9 -0.3
v 0.1 1.1 -0.3
v 0.1 1.2 -0.3
v 0.2 0.3 -0.3
v 0.2 0.4 -0.3
v 0.2 0.5 -0.3
v 0.2 0.6 -0.3
v 0.2 0.8 -0.3
v 0.2 0.9 -0.3
v 0.2 1.1 -0.3
v 0.2 1.2 -0.3
v -0.2 0.8 -0.4
v -0.2 0.9 -0.4
v -0.2 1 -0.4
v -0.2 1.1 -0.4
v -0.1 0.9 -0.4
v -0.1 1 -0.4
v -0.1 1.1 -0.4
v -0.1 1.2 -0.4
v 0 1.1 -0.4
v 0 1.2 -0.4
v 0.1 0.8 -0.4
v 0.1 0.9 -0.4
v 0.1 1.1 -0.4
v 0.1 1.2 -0.4
v -0.6 0 0
v -0.5 0 0
v -0.2 0 0
v -0.1 0 0
v 0.1 0 0
v 0.2 0 0
v -0.6 0 -0.1
v -0.5 0 -0.1
v -0.2 0 -0.1
v -0.1 0 -0.1
v 0.1 0 -0.1
v 0.2 0 -0.1
v -0.3 0.3 0.2
v -0.2 0.3 0.2
v -0.1 0.3 0.2
v 0 0.3 0.2
v 0.1 0.3 0.2
v 0.2 0.3 0.2
v 0.3 0.3 0.2
v -0.3 0.3 0.1
v -0.2 0.3 0.1
v 0.2 0.3 0.1
v 0.3 0.3 0.1
v -0.5 0.3 0
v -0.4 0.3 0
v -0.3 0.3 0
v -0.2 0.3 0
v -0.1 0.3 0
v 0.1 0.3 0
v 0.2 0.3 0
v 0.3 0.3 0
v 0.4 0.3 0
v -0.5 0.3 -0.1
v -0.4 0.3 -0.1
v -0.3 0.3 -0.1
v -0.2 0.3 -0.1
v -0.1 0.3 -0.1
v 0.1 0.3 -0.1
v 0.2 0.3 -0.1
v 0.3 0.3 -0.1
v 0.4 0.3 -0.1
v -0.3 0.3 -0.2
v -0.2 0.3 -0.2
v 0.2 0.3 -0.2
v 0.3 0.3 -0.2
v -0.3 0.3 -0.3
v -0.2 0.3 -0.3
v -0.1 0.3 -0.3
v 0 0.3 -0.3
v 0.1 0.3 -0.3
v 0.2 0.3 -0.3
v -0.4 0.4 0
v -0.3 0.4 0
v -0.4 0.4 -0.1
v -0.3 0.4 -0.1
v -0.3 0.5 0
v -0.2 0.5 0
v -0.3 0.5 -0.1
v -0.2 0.5 -0.1
v 0.1 0.5 -0.2
v 0.2 0.5 -0.2
v 0.1 0.5 -0.3
v 0.2 0.5 -0.3
v -0.3 0.7 0.1
v -0.2 0.7 0.1
v 0.2 0.7 0.1
v 0.3 0.7 0.1
v -0.3 0.7 0
v -0.2 0.7 0
v 0.2 0.7 -0.1
v 0.3 0.7 -0.1
v -0.7 0.8 0.1
v -0.4 0.8 0.1
v -0.6 0.8 0
v -0.5 0.8 0
v -0.3 0.8 0
v -0.2 0.8 0
v -0.6 0.8 -0.1
v -0.5 0.8 -0.1
v -0.1 0.8 -0.1
v 0 0.8 -0.1
v 0.2 0.8 -0.1
v 0.3 0.8 -0.1
v -0.7 0.8 -0.2
v -0.4 0.8 -0.2
v -0.3 0.8 -0.2
v -0.2 0.8 -0.2
v -0.1 0.8 -0.2
v 0 0.8 -0.2
v 0.2 0.8 -0.2
v 0.3 0.8 -0.2
v -0.2 0.8 -0.3
v 0.1 0.8 -0.3
v -0.2 0.8 -0.4
v 0.1 0.8 -0.4
v 0 0.9 0
v 0.1 0.9 0
v 0.2 0.9 0
v 0 0.9 -0.1
v 0.2 0.9 -0.1
v -0.3 0.9 -0.2
v -0.2 0.9 -0.2
v -0.3 0.9 -0.3
v -0.2 0.9 -0.3
v -0.2 1 -0.3
v -0.1 1 -0.3
v -0.2 1 -0.4
v -0.1 1 -0.4
v -0.6 1.2 0.1
v -0.5 1.2 0.1
v -0.7 1.2 0
v -0.6 1.2 0
v -0.5 1.2 0
v -0.4 1.2 0
v -0.7 1.2 -0.1
v -0.6 1.2 -0.1
v -0.5 1.2 -0.1
v -0.4 1.2 -0.1
v -0.6 1.2 -0.2
v -0.5 1.2 -0.2
v -0.3 0.4 0.2
v -0.2 0.4 0.2
v -0.1 0.4 0.2
v 0 0.4 0.2
v 0.1 0.4 0.2
v 0.2 0.4 0.2
v 0.3 0.4 0.2
v -0.3 0.4 0.1
v -0.2 0.4 0.1
v -0.1 0.4 0.1
v 0 0.4 0.1
v 0.1 0.4 0.1
v 0.2 0.4 0.1
v 0.3 0.4 0.1
v -0.5 0.4 0
v -0.4 0.4 0
v -0.3 0.4 0
v -0.2 0.4 0
v 0.2 0.4 0
v 0.3 0.4 0
v 0.4 0.4 0
v -0.5 0.4 -0.1
v -0.4 0.4 -0.1
v -0.3 0.4 -0.1
v -0.2 0.4 -0.1
v 0.2 0.4 -0.1
v 0.3 0.4 -0.1
v 0.4 0.4 -0.1
v -0.3 0.4 -0.2
v -0.2 0.4 -0.2
v 0.1 0.4 -0.2
v 0.2 0.4 -0.2
v 0.3 0.4 -0.2
v 0.1 0.4 -0.3
v 0.2 0.4 -0.3
v -0.4 0.5 0
v -0.3 0.5 0
v 0.2 0.5 0
v 0.3 0.5 0
v -0.4 0.5 -0.1
v -0.3 0.5 -0.1
v 0.2 0.5 -0.1
v 0.3 0.5 -0.1
v -0.3 0.5 -0.2
v -0.2 0.5 -0.2
v -0.3 0.5 -0.3
v -0.2 0.5 -0.3
v -0.3 0.6 0
v -0.2 0.6 0
v -0.3 0.6 -0.1
v -0.2 0.6 -0.1
v -0.1 0.7 -0.1
v 0 0.7 -0.1
v -0.1 0.7 -0.2
v 0 0.7 -0.2
v 0 0.8 0
v 0.1 0.8 0
v 0.2 0.8 0
v 0 0.8 -0.1
v 0.1 0.8 -0.1
v 0.2 0.8 -0.1
v -0.2 0.9 -0.3
v -0.1 0.9 -0.3
v -0.2 0.9 -0.4
v -0.1 0.9 -0.4
v -0.6 1.1 0.1
v -0.5 1.1 0.1
v -0.3 1.1 0.1
v -0.2 1.1 0.1
v 0.2 1.1 0.1
v 0.3 1.1 0.1
v -0.7 1.1 0
v -0.6 1.1 0
v -0.5 1.1 0
v -0.4 1.1 0
v -0.3 1.1 0
v -0.2 1.1 0
v 0.2 1.1 0
v 0.3 1.1 0
v -0.7 1.1 -0.1
v -0.6 1.1 -0.1
v -0.5 1.1 -0.1
v -0.4 1.1 -0.1
v -0.6 1.1 -0.2
v -0.5 1.1 -0.2
v -0.2 1.1 -0.3
v -0.1 1.1 -0.3
v -0.2 1.1 -0.4
v -0.1 1.1 -0.4
v -0.7 1.2 0.1
v -0.6 1.2 0.1
v -0.5 1.2 0.1
v -0.4 1.2 0.1
v -0.2 1.2 0.1
v -0.1 1.2 0.1
v 0.1 1.2 0.1
v 0.2 1.2 0.1
v -0.7 1.2 0
v -0.6 1.2 0
v -0.5 1.2 0
v -0.4 1.2 0
v -0.3 1.2 0
v -0.2 1.2 0
v -0.1 1.2 0
v 0.1 1.2 0
v 0.2 1.2 0
v 0.3 1.2 0
v -0.7 1.2 -0.1
v -0.6 1.2 -0.1
v -0.5 1.2 -0.1
v -0.4 1.2 -0.1
v -0.2 1.2 -0.1
v 0.2 1.2 -0.1
v -0.7 1.2 -0.2
v -0.6 1.2 -0.2
v -0.5 1.2 -0.2
v -0.4 1.2 -0.2
v -0.2 1.2 -0.2
v -0.1 1.2 -0.2
v 0.1 1.2 -0.2
v 0.2 1.2 -0.2
v 0.3 1.2 -0.2
v -0.3 1.2 -0.3
v -0.2 1.2 -0.3
v -0.1 1.2 -0.3
v 0 1.2 -0.3
v 0.1 1.2 -0.3
v 0.2 1.2 -0.3
v -0.1 1.2 -0.4
v 0 1.2 -0.4
v 0.1 1.2 -0.4
v -0.6 1.3 0.1
v -0.5 1.3 0.1
v -0.7 1.3 0
v -0.6 1.3 0
v -0.5 1.3 0
v -0.4 1.3 0
v -0.7 1.3 -0.1
v -0.6 1.3 -0.1
v -0.5 1.3 -0.1
v -0.4 1.3 -0.1
v -0.2 1.3 -0.1
v 0.2 1.3 -0.1
v -0.6 1.3 -0.2
v -0.5 1.3 -0.2
v -0.2 1.3 -0.2
v 0.2 1.3 -0.2
v -0.6 1.4 0
v -0.5 1.4 0
v -0.6 1.4 -0.1
v -0.5 1.4 -0.1

# faces
f 3/16/1 2/16/1 1/16/1
f 4/16/1 2/16/1 3/16/1
f 5/16/1 3/16/1 1/16/1
f 6/6/1 4/6/1 3/6/1
f 6/16/1 3/16/1 5/16/1
f 7/16/1 2/16/1 4/16/1
f 7/6/1 4/6/1 6/6/1
f 8/16/1 2/16/1 7/16/1
f 9/1/1 6/1/1 5/1/1
f 10/1/1 6/1/1 9/1/1
f 11/1/1 8/1/1 7/1/1
f 12/1/1 8/1/1 11/1/1
f 13/2/1 11/2/1 10/2/1
f 14/2/1 11/2/1 13/2/1
f 17/10/1 16/10/1 15/10/1
f 18/10/1 16/10/1 17/10/1
f 22/16/1 20/16/1 19/16/1
f 23/16/1 20/16/1 22/16/1
f 25/2/1 22/2/1 21/2/1
f 26/2/1 22/2/1 25/2/1
f 27/2/1 24/2/1 23/2/1
f 28/2/1 24/2/1 27/2/1
f 29/2/1 27/2/1 26/2/1
f 30/2/1 27/2/1 29/2/1
f 35/1/1 32/1/1 31/1/1
f 36/1/1 32/1/1 35/1/1
f 37/1/1 34/1/1 33/1/1
f 38/1/1 34/1/1 37/1/1
f 41/14/1 40/14/1 39/14/1
f 42/14/1 40/14/1 41/14/1
f 49/15/1 44/15/1 43/15/1
f 50/12/1 45/12/1 44/12/1
f 50/15/1 44/15/1 49/15/1
f 51/15/1 46/15/1 45/15/1
f 51/12/1 45/12/1 50/12/1
f 52/12/1 47/12/1 46/12/1
f 52/15/1 46/15/1 51/15/1
f 53/15/1 48/15/1 47/15/1
f 53/12/1 47/12/1 52/12/1
f 54/15/1 48/15/1 53/15/1
f 57/7/1 54/7/1 53/7/1
f 58/7/1 54/7/1 57/7/1
f 59/7/1 56/7/1 55/7/1
f 60/7/1 56/7/1 59/7/1
f 63/9/1 62/9/1 61/9/1
f 65/9/1 64/9/1 63/9/1
f 66/9/1 64/9/1 65/9/1
f 68/9/1 65/9/1 63/9/1
f 68/16/1 66/16/1 65/16/1
f 69/7/1 67/7/1 66/7/1
f 69/16/1 66/16/1 68/16/1
f 70/9/1 63/9/1 61/9/1
f 70/9/1 68/9/1 63/9/1
f 71/9/1 68/9/1 70/9/1
f 72/7/1 69/7/1 68/7/1
f 72/9/1 68/9/1 71/9/1
f 73/7/1 72/7/1 71/7/1
f 74/7/1 67/7/1 69/7/1
f 74/7/1 72/7/1 73/7/1
f 74/7/1 69/7/1 72/7/1
f 77/10/1 76/10/1 75/10/1
f 78/10/1 76/10/1 77/10/1
f 79/3/1 78/3/1 77/3/1
f 80/3/1 78/3/1 79/3/1
f 85/15/1 83/15/1 82/15/1
f 85/12/1 82/12/1 81/12/1
f 86/12/1 84/12/1 83/12/1
f 86/15/1 83/15/1 85/15/1
f 87/12/1 84/12/1 86/12/1
f 89/12/1 85/12/1 81/12/1
f 90/12/1 85/12/1 89/12/1
f 91/12/1 87/12/1 86/12/1
f 92/7/1 88/7/1 87/7/1
f 92/12/1 87/12/1 91/12/1
f 93/16/1 91/16/1 90/16/1
f 93/16/1 90/16/1 89/16/1
f 94/16/1 91/16/1 93/16/1
f 95/7/1 92/7/1 91/7/1
f 95/16/1 91/16/1 94/16/1
f 96/7/1 95/7/1 94/7/1
f 97/7/1 88/7/1 92/7/1
f 97/7/1 95/7/1 96/7/1
f 97/7/1 92/7/1 95/7/1
f 98/7/1 88/7/1 97/7/1
f 100/16/1 99/16/1 98/16/1
f 100/16/1 98/16/1 97/16/1
f 101/16/1 99/16/1 100/16/1
f 102/16/1 99/16/1 101/16/1
f 107/7/1 104/7/1 103/7/1
f 108/7/1 104/7/1 107/7/1
f 109/7/1 106/7/1 105/7/1
f 110/7/1 106/7/1 109/7/1
f 113/7/1 112/7/1 111/7/1
f 114/7/1 112/7/1 113/7/1
f 117/7/1 116/7/1 115/7/1
f 118/7/1 116/7/1 117/7/1
f 121/7/1 120/7/1 119/7/1
f 122/7/1 120/7/1 121/7/1
f 125/7/1 124/7/1 123/7/1
f 126/7/1 124/7/1 125/7/1
f 129/10/1 128/10/1 127/10/1
f 130/10/1 128/10/1 129/10/1
f 131/3/1 130/3/1 129/3/1
f 132/3/1 130/3/1 131/3/1
f 135/16/1 134/16/1 133/16/1
f 136/16/1 134/16/1 135/16/1
f 137/1/2 138/1/2 141/1/2
f 141/1/2 138/1/2 142/1/2
f 139/1/2 140/1/2 143/1/2
f 143/1/2 140/1/2 144/1/2
f 145/10/2 146/10/2 147/10/2
f 147/10/2 146/10/2 148/10/2
f 149/10/2 150/10/2 151/10/2
f 151/10/2 150/10/2 152/10/2
f 153/16/2 154/16/2 156/16/2
f 156/16/2 154/16/2 157/16/2
f 155/2/2 156/2/2 159/2/2
f 159/2/2 156/2/2 160/2/2
f 157/2/2 158/2/2 161/2/2
f 161/2/2 158/2/2 162/2/2
f 160/2/2 161/2/2 163/2/2
f 163/2/2 161/2/2 164/2/2
f 165/3/2 166/3/2 167/3/2
f 167/3/2 166/3/2 168/3/2
f 169/16/2 170/16/2 171/16/2
f 171/16/2 170/16/2 172/16/2
f 169/16/2 171/16/2 173/16/2
f 171/6/2 172/6/2 174/6/2
f 173/16/2 171/16/2 174/16/2
f 172/16/2 170/16/2 175/16/2
f 174/6/2 172/6/2 175/6/2
f 175/16/2 170/16/2 176/16/2
f 173/1/2 174/1/2 177/1/2
f 177/1/2 174/1/2 178/1/2
f 175/1/2 176/1/2 179/1/2
f 179/1/2 176/1/2 180/1/2
f 178/2/2 179/2/2 181/2/2
f 181/2/2 179/2/2 182/2/2
f 183/14/2 184/14/2 185/14/2
f 185/14/2 184/14/2 186/14/2
f 187/10/2 188/10/2 189/10/2
f 189/10/2 188/10/2 190/10/2
f 189/3/2 190/3/2 191/3/2
f 191/3/2 190/3/2 192/3/2
f 193/7/2 194/7/2 195/7/2
f 195/7/2 194/7/2 196/7/2
f 197/5/2 198/5/2 199/5/2
f 199/5/2 198/5/2 200/5/2
f 201/7/2 202/7/2 203/7/2
f 203/7/2 202/7/2 204/7/2
f 205/16/2 206/16/2 207/16/2
f 207/16/2 206/16/2 208/16/2
f 207/7/2 208/7/2 209/7/2
f 209/7/2 208/7/2 210/7/2
f 209/16/2 210/16/2 211/16/2
f 211/16/2 210/16/2 212/16/2
f 213/10/2 214/10/2 215/10/2
f 215/10/2 214/10/2 216/10/2
f 215/3/2 216/3/2 217/3/2
f 217/3/2 216/3/2 218/3/2
f 219/15/2 220/15/2 224/15/2
f 224/15/2 220/15/2 225/15/2
f 221/15/2 222/15/2 226/15/2
f 226/15/2 222/15/2 227/15/2
f 223/15/2 224/15/2 228/15/2
f 228/15/2 224/15/2 229/15/2
f 226/12/2 227/12/2 231/12/2
f 227/14/2 228/14/2 232/14/2
f 231/12/2 227/12/2 232/12/2
f 228/14/2 229/14/2 232/14/2
f 232/14/2 229/14/2 233/14/2
f 229/11/2 230/11/2 234/11/2
f 233/14/2 229/14/2 234/14/2
f 234/11/2 230/11/2 235/11/2
f 232/16/2 233/16/2 236/16/2
f 231/16/2 232/16/2 236/16/2
f 234/7/2 235/7/2 237/7/2
f 236/16/2 233/16/2 237/16/2
f 233/7/2 234/7/2 237/7/2
f 237/7/2 235/7/2 238/7/2
f 238/7/2 235/7/2 239/7/2
f 239/7/2 235/7/2 240/7/2
f 239/16/2 240/16/2 241/16/2
f 241/16/2 240/16/2 242/16/2
f 241/7/2 242/7/2 243/7/2
f 243/7/2 242/7/2 246/7/2
f 246/7/2 242/7/2 247/7/2
f 244/7/2 245/7/2 248/7/2
f 248/7/2 245/7/2 249/7/2
f 246/16/2 247/16/2 251/16/2
f 251/16/2 247/16/2 252/16/2
f 250/7/2 251/7/2 253/7/2
f 253/7/2 251/7/2 254/7/2
f 255/12/2 256/12/2 260/12/2
f 256/15/2 257/15/2 261/15/2
f 260/12/2 256/12/2 261/12/2
f 261/15/2 257/15/2 262/15/2
f 258/15/2 259/15/2 263/15/2
f 263/15/2 259/15/2 264/15/2
f 262/3/2 263/3/2 265/3/2
f 265/3/2 263/3/2 266/3/2
f 267/16/2 268/16/2 269/16/2
f 269/16/2 268/16/2 270/16/2
f 270/16/2 268/16/2 271/16/2
f 269/7/2 270/7/2 273/7/2
f 270/16/2 271/16/2 274/16/2
f 273/7/2 270/7/2 274/7/2
f 271/16/2 272/16/2 274/16/2
f 273/16/2 274/16/2 275/16/2
f 274/16/2 272/16/2 276/16/2
f 275/16/2 274/16/2 276/16/2
f 276/16/2 272/16/2 277/16/2
f 277/16/2 272/16/2 278/16/2
f 275/7/2 276/7/2 279/7/2
f 276/16/2 277/16/2 280/16/2
f 279/7/2 276/7/2 280/7/2
f 277/7/2 278/7/2 281/7/2
f 280/16/2 277/16/2 281/16/2
f 281/7/2 278/7/2 282/7/2
f 280/16/2 281/16/2 283/16/2
f 281/16/2 282/16/2 283/16/2
f 283/16/2 282/16/2 284/16/2
f 285/3/2 286/3/2 287/3/2
f 287/3/2 286/3/2 288/3/2
f 291/15/3 290/15/3 289/15/3
f 292/15/3 290/15/3 291/15/3
f 293/12/3 292/12/3 291/12/3
f 294/12/3 292/12/3 293/12/3
f 295/15/3 294/15/3 293/15/3
f 296/15/3 294/15/3 295/15/3
f 297/12/3 296/12/3 295/12/3
f 298/12/3 296/12/3 297/12/3
f 299/15/3 298/15/3 297/15/3
f 300/15/3 298/15/3 299/15/3
f 301/12/3 300/12/3 299/12/3
f 302/12/3 300/12/3 301/12/3
f 306/16/3 304/16/3 303/16/3
f 307/1/3 305/1/3 304/1/3
f 307/16/3 304/16/3 306/16/3
f 308/1/3 305/1/3 307/1/3
f 310/16/3 306/16/3 303/16/3
f 310/6/3 307/6/3 306/6/3
f 311/6/3 307/6/3 310/6/3
f 312/2/3 309/2/3 308/2/3
f 313/2/3 309/2/3 312/2/3
f 314/16/3 311/16/3 310/16/3
f 314/16/3 310/16/3 303/16/3
f 315/1/3 312/1/3 311/1/3
f 315/16/3 311/16/3 314/16/3
f 316/1/3 312/1/3 315/1/3
f 321/9/3 318/9/3 317/9/3
f 322/9/3 318/9/3 321/9/3
f 323/9/3 318/9/3 322/9/3
f 324/9/3 318/9/3 323/9/3
f 325/9/3 318/9/3 324/9/3
f 327/12/3 320/12/3 319/12/3
f 328/16/3 321/16/3 320/16/3
f 328/12/3 320/12/3 327/12/3
f 329/4/3 322/4/3 321/4/3
f 329/16/3 321/16/3 328/16/3
f 330/17/3 323/17/3 322/17/3
f 330/4/3 322/4/3 329/4/3
f 331/16/3 324/16/3 323/16/3
f 331/17/3 323/17/3 330/17/3
f 332/7/3 326/7/3 325/7/3
f 332/16/3 324/16/3 331/16/3
f 332/7/3 325/7/3 324/7/3
f 333/7/3 326/7/3 332/7/3
f 334/15/3 328/15/3 327/15/3
f 335/13/3 329/13/3 328/13/3
f 335/15/3 328/15/3 334/15/3
f 336/4/3 330/4/3 329/4/3
f 336/13/3 329/13/3 335/13/3
f 337/3/3 331/3/3 330/3/3
f 337/4/3 330/4/3 336/4/3
f 338/8/3 332/8/3 331/8/3
f 338/3/3 331/3/3 337/3/3
f 338/8/3 333/8/3 332/8/3
f 339/8/3 333/8/3 338/8/3
f 340/8/3 333/8/3 339/8/3
f 341/12/3 336/12/3 335/12/3
f 341/12/3 335/12/3 334/12/3
f 342/12/3 336/12/3 341/12/3
f 343/12/3 336/12/3 342/12/3
f 344/3/3 337/3/3 336/3/3
f 344/12/3 336/12/3 343/12/3
f 344/3/3 338/3/3 337/3/3
f 345/3/3 338/3/3 344/3/3
f 346/16/3 339/16/3 338/16/3
f 346/3/3 338/3/3 345/3/3
f 347/7/3 340/7/3 339/7/3
f 347/16/3 339/16/3 346/16/3
f 348/8/3 333/8/3 340/8/3
f 348/7/3 340/7/3 347/7/3
f 349/8/3 333/8/3 348/8/3
f 350/15/3 342/15/3 341/15/3
f 351/12/3 343/12/3 342/12/3
f 351/15/3 342/15/3 350/15/3
f 352/16/3 345/16/3 344/16/3
f 352/12/3 343/12/3 351/12/3
f 352/16/3 344/16/3 343/16/3
f 353/16/3 345/16/3 352/16/3
f 354/17/3 346/17/3 345/17/3
f 354/16/3 345/16/3 353/16/3
f 355/16/3 347/16/3 346/16/3
f 355/17/3 346/17/3 354/17/3
f 356/8/3 348/8/3 347/8/3
f 356/16/3 347/16/3 355/16/3
f 357/7/3 349/7/3 348/7/3
f 357/8/3 348/8/3 356/8/3
f 358/7/3 349/7/3 357/7/3
f 359/16/3 354/16/3 353/16/3
f 360/7/3 355/7/3 354/7/3
f 360/16/3 354/16/3 359/16/3
f 361/16/3 356/16/3 355/16/3
f 361/7/3 355/7/3 360/7/3
f 362/7/3 357/7/3 356/7/3
f 362/16/3 356/16/3 361/16/3
f 363/7/3 357/7/3 362/7/3
f 369/2/3 365/2/3 364/2/3
f 370/2/3 365/2/3 369/2/3
f 372/10/3 367/10/3 366/10/3
f 373/10/3 367/10/3 372/10/3
f 374/10/3 367/10/3 373/10/3
f 375/10/3 367/10/3 374/10/3
f 376/16/3 369/16/3 368/16/3
f 377/16/3 369/16/3 376/16/3
f 378/2/3 371/2/3 370/2/3
f 379/2/3 371/2/3 378/2/3
f 380/3/3 374/3/3 373/3/3
f 381/3/3 374/3/3 380/3/3
f 383/2/3 378/2/3 377/2/3
f 384/2/3 378/2/3 383/2/3
f 385/14/3 382/14/3 381/14/3
f 386/14/3 382/14/3 385/14/3
f 393/7/3 387/7/3 386/7/3
f 394/7/3 387/7/3 393/7/3
f 395/7/3 389/7/3 388/7/3
f 396/7/3 389/7/3 395/7/3
f 397/10/3 391/10/3 390/10/3
f 398/3/3 392/3/3 391/3/3
f 398/10/3 391/10/3 397/10/3
f 399/3/3 392/3/3 398/3/3
f 403/10/3 401/10/3 400/10/3
f 404/3/3 402/3/3 401/3/3
f 404/10/3 401/10/3 403/10/3
f 405/3/3 402/3/3 404/3/3
f 411/3/3 407/3/3 406/3/3
f 412/3/3 407/3/3 411/3/3
f 413/16/3 409/16/3 408/16/3
f 414/16/3 409/16/3 413/16/3
f 415/3/3 411/3/3 410/3/3
f 416/3/3 411/3/3 415/3/3
f 419/1/3 418/1/3 417/1/3
f 420/1/3 418/1/3 419/1/3
f 423/1/3 422/1/3 421/1/3
f 424/1/3 422/1/3 423/1/3
f 429/16/3 428/16/3 427/16/3
f 430/16/3 428/16/3 429/16/3
f 431/16/3 428/16/3 430/16/3
f 432/7/3 426/7/3 425/7/3
f 433/7/3 426/7/3 432/7/3
f 436/7/3 435/7/3 434/7/3
f 437/7/3 435/7/3 436/7/3
f 440/7/3 439/7/3 438/7/3
f 441/7/3 439/7/3 440/7/3
f 442/1/4 443/1/4 444/1/4
f 444/1/4 443/1/4 445/1/4
f 446/1/4 447/1/4 448/1/4
f 448/1/4 447/1/4 449/1/4
f 450/9/4 451/9/4 452/9/4
f 452/9/4 451/9/4 453/9/4
f 454/3/4 455/3/4 456/3/4
f 456/3/4 455/3/4 457/3/4
f 456/17/4 457/17/4 458/17/4
f 458/17/4 457/17/4 459/17/4
f 460/2/4 461/2/4 465/2/4
f 465/2/4 461/2/4 466/2/4
f 462/10/4 463/10/4 468/10/4
f 468/10/4 463/10/4 469/10/4
f 469/10/4 463/10/4 470/10/4
f 470/10/4 463/10/4 471/10/4
f 464/16/4 465/16/4 472/16/4
f 472/16/4 465/16/4 473/16/4
f 466/2/4 467/2/4 474/2/4
f 474/2/4 467/2/4 475/2/4
f 469/3/4 470/3/4 476/3/4
f 476/3/4 470/3/4 477/3/4
f 473/2/4 474/2/4 479/2/4
f 479/2/4 474/2/4 480/2/4
f 477/14/4 478/14/4 481/14/4
f 481/14/4 478/14/4 482/14/4
f 482/7/4 483/7/4 487/7/4
f 487/7/4 483/7/4 488/7/4
f 484/10/4 485/10/4 489/10/4
f 485/3/4 486/3/4 490/3/4
f 489/10/4 485/10/4 490/10/4
f 490/3/4 486/3/4 491/3/4
f 492/7/4 493/7/4 494/7/4
f 494/7/4 493/7/4 495/7/4
f 496/10/4 497/10/4 499/10/4
f 497/3/4 498/3/4 500/3/4
f 499/10/4 497/10/4 500/10/4
f 500/3/4 498/3/4 501/3/4
f 502/3/4 503/3/4 507/3/4
f 507/3/4 503/3/4 508/3/4
f 504/16/4 505/16/4 509/16/4
f 509/16/4 505/16/4 510/16/4
f 506/3/4 507/3/4 511/3/4
f 511/3/4 507/3/4 512/3/4
f 513/16/4 514/16/4 516/16/4
f 514/1/4 515/1/4 517/1/4
f 516/16/4 514/16/4 517/16/4
f 517/1/4 515/1/4 518/1/4
f 513/16/4 516/16/4 520/16/4
f 516/6/4 517/6/4 520/6/4
f 520/6/4 517/6/4 521/6/4
f 518/2/4 519/2/4 522/2/4
f 522/2/4 519/2/4 523/2/4
f 520/16/4 521/16/4 524/16/4
f 513/16/4 520/16/4 524/16/4
f 521/1/4 522/1/4 525/1/4
f 524/16/4 521/16/4 525/16/4
f 525/1/4 522/1/4 526/1/4
f 527/9/4 528/9/4 529/9/4
f 529/9/4 528/9/4 530/9/4
f 531/7/4 532/7/4 533/7/4
f 533/7/4 532/7/4 536/7/4
f 534/15/4 535/15/4 538/15/4
f 538/15/4 535/15/4 539/15/4
f 536/7/4 532/7/4 544/7/4
f 544/7/4 532/7/4 545/7/4
f 537/15/4 538/15/4 546/15/4
f 546/15/4 538/15/4 547/15/4
f 540/16/4 541/16/4 548/16/4
f 541/16/4 542/16/4 548/16/4
f 542/7/4 543/7/4 549/7/4
f 548/16/4 542/16/4 549/16/4
f 543/16/4 544/16/4 550/16/4
f 549/7/4 543/7/4 550/7/4
f 550/16/4 544/16/4 551/16/4
f 552/15/4 553/15/4 557/15/4
f 553/7/4 554/7/4 558/7/4
f 557/15/4 553/15/4 558/15/4
f 558/7/4 554/7/4 559/7/4
f 555/7/4 556/7/4 561/7/4
f 561/7/4 556/7/4 562/7/4
f 562/7/4 556/7/4 563/7/4
f 563/7/4 556/7/4 564/7/4
f 557/12/4 558/12/4 565/12/4
f 559/7/4 560/7/4 566/7/4
f 565/12/4 558/12/4 566/12/4
f 558/7/4 559/7/4 566/7/4
f 561/7/4 562/7/4 567/7/4
f 567/7/4 562/7/4 568/7/4
f 563/16/4 564/16/4 569/16/4
f 569/16/4 564/16/4 570/16/4
f 565/15/4 566/15/4 571/15/4
f 566/7/4 560/7/4 572/7/4
f 571/15/4 566/15/4 572/15/4
f 571/12/4 572/12/4 573/12/4
f 572/7/4 560/7/4 574/7/4
f 573/12/4 572/12/4 574/12/4
f 574/7/4 560/7/4 575/7/4
f 575/7/4 560/7/4 576/7/4
f 576/7/4 560/7/4 577/7/4
f 573/15/4 574/15/4 581/15/4
f 581/15/4 574/15/4 582/15/4
f 575/11/4 576/11/4 583/11/4
f 576/7/4 577/7/4 584/7/4
f 583/11/4 576/11/4 584/11/4
f 577/16/4 578/16/4 585/16/4
f 584/7/4 577/7/4 585/7/4
f 578/7/4 579/7/4 586/7/4
f 585/16/4 578/16/4 586/16/4
f 579/16/4 580/16/4 587/16/4
f 586/7/4 579/7/4 587/7/4
f 587/16/4 580/16/4 588/16/4
f 589/16/4 590/16/4 593/16/4
f 591/7/4 592/7/4 594/7/4
f 594/7/4 592/7/4 595/7/4
f 593/7/4 594/7/4 597/7/4
f 595/7/4 596/7/4 597/7/4
f 594/7/4 595/7/4 597/7/4
f 597/7/4 596/7/4 598/7/4
f 589/16/4 593/16/4 599/16/4
f 593/7/4 597/7/4 600/7/4
f 599/16/4 593/16/4 600/16/4
f 597/16/4 598/16/4 601/16/4
f 600/7/4 597/7/4 601/7/4
f 601/16/4 598/16/4 602/16/4
f 609/10/5 604/10/5 603/10/5
f 610/10/5 604/10/5 609/10/5
f 611/10/5 606/10/5 605/10/5
f 612/10/5 606/10/5 611/10/5
f 613/10/5 608/10/5 607/10/5
f 614/10/5 608/10/5 613/10/5
f 622/15/5 616/15/5 615/15/5
f 623/12/5 617/12/5 616/12/5
f 623/15/5 616/15/5 622/15/5
f 624/12/5 621/12/5 620/12/5
f 624/15/5 620/15/5 619/15/5
f 625/12/5 621/12/5 624/12/5
f 628/12/5 623/12/5 622/12/5
f 629/12/5 617/12/5 623/12/5
f 629/12/5 623/12/5 628/12/5
f 630/15/5 618/15/5 617/15/5
f 630/12/5 617/12/5 629/12/5
f 631/12/5 619/12/5 618/12/5
f 631/15/5 624/15/5 619/15/5
f 631/15/5 625/15/5 624/15/5
f 632/15/5 625/15/5 631/15/5
f 633/15/5 625/15/5 632/15/5
f 635/3/5 627/3/5 626/3/5
f 636/3/5 627/3/5 635/3/5
f 637/15/5 629/15/5 628/15/5
f 638/15/5 629/15/5 637/15/5
f 639/15/5 618/15/5 630/15/5
f 640/12/5 631/12/5 618/12/5
f 641/12/5 633/12/5 632/12/5
f 642/3/5 634/3/5 633/3/5
f 642/12/5 633/12/5 641/12/5
f 643/3/5 634/3/5 642/3/5
f 644/12/5 638/12/5 637/12/5
f 644/12/5 639/12/5 638/12/5
f 645/12/5 639/12/5 644/12/5
f 646/15/5 642/15/5 641/15/5
f 646/15/5 641/15/5 640/15/5
f 647/15/5 642/15/5 646/15/5
f 648/15/5 645/15/5 644/15/5
f 649/12/5 639/12/5 645/12/5
f 649/15/5 645/15/5 648/15/5
f 650/15/5 618/15/5 639/15/5
f 650/12/5 639/12/5 649/12/5
f 651/12/5 640/12/5 618/12/5
f 651/15/5 618/15/5 650/15/5
f 652/15/5 646/15/5 640/15/5
f 652/12/5 640/12/5 651/12/5
f 653/15/5 646/15/5 652/15/5
f 656/14/5 655/14/5 654/14/5
f 657/14/5 655/14/5 656/14/5
f 660/7/5 659/7/5 658/7/5
f 661/7/5 659/7/5 660/7/5
f 664/11/5 663/11/5 662/11/5
f 665/11/5 663/11/5 664/11/5
f 670/9/5 667/9/5 666/9/5
f 671/9/5 667/9/5 670/9/5
f 672/16/5 669/16/5 668/16/5
f 673/16/5 669/16/5 672/16/5
f 676/16/5 675/16/5 674/16/5
f 677/16/5 675/16/5 676/16/5
f 680/16/5 676/16/5 674/16/5
f 681/16/5 675/16/5 677/16/5
f 686/16/5 680/16/5 674/16/5
f 686/16/5 681/16/5 680/16/5
f 687/16/5 675/16/5 681/16/5
f 687/16/5 681/16/5 686/16/5
f 688/9/5 679/9/5 678/9/5
f 689/9/5 679/9/5 688/9/5
f 690/16/5 683/16/5 682/16/5
f 691/16/5 683/16/5 690/16/5
f 692/16/5 685/16/5 684/16/5
f 693/16/5 685/16/5 692/16/5
f 696/16/5 695/16/5 694/16/5
f 697/16/5 695/16/5 696/16/5
f 701/16/5 699/16/5 698/16/5
f 701/16/5 700/16/5 699/16/5
f 702/16/5 700/16/5 701/16/5
f 705/7/5 704/7/5 703/7/5
f 706/7/5 704/7/5 705/7/5
f 709/7/5 708/7/5 707/7/5
f 710/7/5 708/7/5 709/7/5
f 714/2/5 712/2/5 711/2/5
f 715/2/5 712/2/5 714/2/5
f 717/2/5 714/2/5 713/2/5
f 718/2/5 714/2/5 717/2/5
f 719/2/5 716/2/5 715/2/5
f 720/2/5 716/2/5 719/2/5
f 721/2/5 719/2/5 718/2/5
f 722/2/5 719/2/5 721/2/5
f 723/15/6 724/15/6 730/15/6
f 724/12/6 725/12/6 731/12/6
f 730/15/6 724/15/6 731/15/6
f 725/15/6 726/15/6 732/15/6
f 731/12/6 725/12/6 732/12/6
f 726/12/6 727/12/6 733/12/6
f 732/15/6 726/15/6 733/15/6
f 727/15/6 728/15/6 734/15/6
f 733/12/6 727/12/6 734/12/6
f 728/12/6 729/12/6 735/12/6
f 734/15/6 728/15/6 735/15/6
f 735/12/6 729/12/6 736/12/6
f 730/12/6 731/12/6 739/12/6
f 739/12/6 731/12/6 740/12/6
f 735/15/6 736/15/6 741/15/6
f 741/15/6 736/15/6 742/15/6
f 737/3/6 738/3/6 744/3/6
f 744/3/6 738/3/6 745/3/6
f 739/15/6 740/15/6 746/15/6
f 746/15/6 740/15/6 747/15/6
f 742/3/6 743/3/6 749/3/6
f 749/3/6 743/3/6 750/3/6
f 746/12/6 747/12/6 751/12/6
f 751/12/6 747/12/6 752/12/6
f 748/15/6 749/15/6 754/15/6
f 754/15/6 749/15/6 755/15/6
f 753/15/6 754/15/6 756/15/6
f 756/15/6 754/15/6 757/15/6
f 758/14/6 759/14/6 762/14/6
f 762/14/6 759/14/6 763/14/6
f 760/3/6 761/3/6 764/3/6
f 764/3/6 761/3/6 765/3/6
f 766/7/6 767/7/6 768/7/6
f 768/7/6 767/7/6 769/7/6
f 770/7/6 771/7/6 772/7/6
f 772/7/6 771/7/6 773/7/6
f 774/7/6 775/7/6 776/7/6
f 776/7/6 775/7/6 777/7/6
f 778/7/6 779/7/6 781/7/6
f 779/5/6 780/5/6 782/5/6
f 781/7/6 779/7/6 782/7/6
f 782/5/6 780/5/6 783/5/6
f 784/16/6 785/16/6 786/16/6
f 786/16/6 785/16/6 787/16/6
f 788/6/6 789/6/6 795/6/6
f 795/6/6 789/6/6 796/6/6
f 790/9/6 791/9/6 798/9/6
f 798/9/6 791/9/6 799/9/6
f 792/7/6 793/7/6 800/7/6
f 800/7/6 793/7/6 801/7/6
f 794/6/6 795/6/6 802/6/6
f 802/6/6 795/6/6 803/6/6
f 796/6/6 797/6/6 804/6/6
f 804/6/6 797/6/6 805/6/6
f 803/6/6 804/6/6 806/6/6
f 806/6/6 804/6/6 807/6/6
f 808/7/6 809/7/6 810/7/6
f 810/7/6 809/7/6 811/7/6
f 812/1/6 813/1/6 820/1/6
f 820/1/6 813/1/6 821/1/6
f 814/1/6 815/1/6 822/1/6
f 822/1/6 815/1/6 823/1/6
f 816/7/6 817/7/6 825/7/6
f 817/8/6 818/8/6 826/8/6
f 825/7/6 817/7/6 826/7/6
f 818/7/6 819/7/6 827/7/6
f 826/8/6 818/8/6 827/8/6
f 827/7/6 819/7/6 828/7/6
f 825/16/6 826/16/6 834/16/6
f 828/16/6 829/16/6 834/16/6
f 827/16/6 828/16/6 834/16/6
f 826/16/6 827/16/6 834/16/6
f 824/7/6 825/7/6 834/7/6
f 834/16/6 829/16/6 835/16/6
f 830/1/6 831/1/6 836/1/6
f 836/1/6 831/1/6 837/1/6
f 832/1/6 833/1/6 838/1/6
f 838/1/6 833/1/6 839/1/6
f 824/7/6 834/7/6 840/7/6
f 835/16/6 829/16/6 843/16/6
f 843/16/6 829/16/6 844/16/6
f 824/7/6 840/7/6 845/7/6
f 840/16/6 841/16/6 846/16/6
f 845/7/6 840/7/6 846/7/6
f 841/7/6 842/7/6 847/7/6
f 846/16/6 841/16/6 847/16/6
f 847/7/6 842/7/6 848/7/6
f 842/16/6 843/16/6 849/16/6
f 848/7/6 842/7/6 849/7/6
f 849/16/6 843/16/6 850/16/6
f 847/7/6 848/7/6 851/7/6
f 848/16/6 849/16/6 852/16/6
f 851/7/6 848/7/6 852/7/6
f 852/16/6 849/16/6 853/16/6
f 854/2/6 855/2/6 857/2/6
f 857/2/6 855/2/6 858/2/6
f 856/2/6 857/2/6 860/2/6
f 860/2/6 857/2/6 861/2/6
f 858/2/6 859/2/6 862/2/6
f 862/2/6 859/2/6 863/2/6
f 861/2/6 862/2/6 866/2/6
f 866/2/6 862/2/6 867/2/6
f 864/7/6 865/7/6 868/7/6
f 868/7/6 865/7/6 869/7/6
f 870/2/6 871/2/6 872/2/6
f 872/2/6 871/2/6 873/2/6
